<?xml version="1.0" ?><!DOCTYPE svg  PUBLIC '-//W3C//DTD SVG 1.1//EN'  'http://www.w3.org/Graphics/SVG/1.1/DTD/svg11.dtd'><svg enable-background="new 0 0 128 128" height="128px" id="Layer_1" version="1.1" viewBox="0 0 128 128" width="128px" xml:space="preserve" xmlns="http://www.w3.org/2000/svg" xmlns:xlink="http://www.w3.org/1999/xlink"><g><g><path d="M72.511,90.536c-0.386,1.035,0.14,2.187,1.175,2.573l16.745,6.248c-7.854,5.62-17.1,8.594-26.804,8.594    c-25.435,0-46.127-20.693-46.127-46.128c0-1.104-0.896-2-2-2s-2,0.896-2,2c0,27.64,22.487,50.128,50.127,50.128    c9.725,0,19.026-2.75,27.111-7.966l-3.087,14.551c-0.229,1.08,0.461,2.142,1.541,2.371c0.14,0.03,0.279,0.044,0.417,0.044    c0.925,0,1.755-0.645,1.954-1.586l4.69-22.105l-21.17-7.898C74.051,88.977,72.898,89.501,72.511,90.536z M64.375,16.322    c-9.728,0-19.03,2.749-27.11,7.963l3.086-14.548c0.229-1.081-0.46-2.142-1.541-2.371c-1.077-0.229-2.143,0.461-2.371,1.542    l-4.69,22.104l21.17,7.898c0.23,0.086,0.467,0.127,0.699,0.127c0.811,0,1.573-0.498,1.874-1.302    c0.386-1.034-0.14-2.187-1.175-2.573l-16.747-6.25c7.85-5.618,17.097-8.591,26.806-8.591c25.434,0,46.125,20.691,46.125,46.125    c0,1.104,0.896,2,2,2s2-0.896,2-2C114.5,38.808,92.014,16.322,64.375,16.322z"/></g></g></svg>